<svg id="Layer_1" data-name="Layer 1" xmlns="http://www.w3.org/2000/svg" width="180" height="180" viewBox="0 0 180 180">
  <g>
    <path d="M48.56,51.58a38.43,38.43,0,0,0-32.47,59.19l27.51-27L26,83.79,26,70.21l42.06,0,.17,40.87-14.32,0,.22-16L27.09,122A38.42,38.42,0,1,0,48.56,51.58" style="fill: #231f20"/>
    <path d="M131.71,51.58a38.43,38.43,0,0,0-32.47,59.19l27.51-27-17.63,0,0-13.58,42.06,0,.17,40.87-14.32,0,.22-16L110.24,122a38.42,38.42,0,1,0,21.47-70.38" style="fill: #231f20"/>
  </g>
</svg>
