<svg id="_4C_MASTER" data-name="4C MASTER" xmlns="http://www.w3.org/2000/svg" xmlns:xlink="http://www.w3.org/1999/xlink" viewBox="0 0 441.35 83.09"><defs><style>.cls-1{fill:none;}.cls-2{clip-path:url(#clip-path);}.cls-3{fill:url(#radial-gradient);}.cls-4{fill:#004312;}.cls-5{fill:#fff;}</style><clipPath id="clip-path" transform="translate(-7.37 -1.26)"><path class="cls-1" d="M154.67,39.26c-19.33.83-38.76,1.92-56.82,3.12L91.73,6.8h68.68l1.3,17H128.93l1.31,9.1H154ZM336.44,6.8H270l-2.53,31.41c10.9.25,21.5.58,31.72,1l2-15.1h8.81c11.61,0,10.36,5,8.93,13.63-.13.83-.25,1.58-.37,2.28,11.12.51,21.65,1.07,31.46,1.64,2-8.63,4.1-17.55,4.1-17.55C356.24,13.11,348.89,6.8,336.44,6.8ZM229.56,37.66,208.93,6.8h-38.4l1.8,31.78c17.1-.59,33.75-.94,48.89-.94Zm6.65.05q10.33.07,20.4.27L258.7,6.8H237.78ZM82.57,6.8H14.17L26,48.71C30.3,48.18,36.32,47.5,41.08,47c2.4-.24,4.92-.49,7.55-.73,3.42-.32,7-.65,10.77-1,6.65-.57,13.79-1.14,21.29-1.7l-2.1-9H56.83L54.35,24H86.18Zm279.16,0L357.57,24h18.59l-4.45,19c13.93.91,25.68,1.78,34.67,2.44L412.83,24h20.76L439.37,6.8Z"/></clipPath><radialGradient id="radial-gradient" cx="-357.88" cy="245.45" r="121.9" gradientTransform="matrix(3.4, -0.05, 0.02, 0.51, 1489.98, -104.11)" gradientUnits="userSpaceOnUse"><stop offset="0.04" stop-color="#fff"/><stop offset="0.07" stop-color="#e8f1e3"/><stop offset="0.13" stop-color="#abcc9b"/><stop offset="0.23" stop-color="#4c9329"/><stop offset="0.23" stop-color="#4b9228"/><stop offset="0.28" stop-color="#2f7d24"/><stop offset="0.34" stop-color="#196d21"/><stop offset="0.39" stop-color="#0c6320"/><stop offset="0.44" stop-color="#07601f"/></radialGradient></defs><path class="cls-1" d="M48.63,46.26c3.42-.32,7-.65,10.77-1C55.64,45.61,52.05,45.94,48.63,46.26Z" transform="translate(-7.37 -1.26)"/><path d="M80.69,43.59h0c-7.5.56-14.64,1.13-21.29,1.7C66.05,44.72,73.19,44.15,80.69,43.59Z" transform="translate(-7.37 -1.26)"/><g class="cls-2"><rect class="cls-3" width="441.35" height="83.09"/></g><path class="cls-4" d="M363.46,78.24h33.06l8.7-29c-5.56-.35-18.13-1.06-34.54-1.88Z" transform="translate(-7.37 -1.26)"/><path class="cls-4" d="M134.47,62.57l-1.34-9.35h23l-1-9.56c-14.64.28-36,1.11-56.71,2L104,78.24h61.45l-1.15-15.67Z" transform="translate(-7.37 -1.26)"/><path class="cls-4" d="M235.55,50.66,232,42.59c-3.17,0-6.1-.05-8.7-.05-16.26,0-36.32.25-50.71.61l2,35.09h18.33l-.39-35.46L219,78.24h34.9L256.27,43c-7.2-.16-14.12-.3-20.31-.38Z" transform="translate(-7.37 -1.26)"/><path class="cls-4" d="M316.6,50.16c-2.2,9.85-7.38,12.23-15,12.23h-5.51l2.45-18.14c-9.64-.34-20.6-.68-31.44-1l-2.83,34.95H317c11.68,0,25.57-5.92,29.32-20.9.27-1.06,1.35-5.6,2.62-11-9.88-.46-20.45-.92-31.27-1.36C317.4,46.55,317.05,48.15,316.6,50.16Z" transform="translate(-7.37 -1.26)"/><path class="cls-4" d="M44.08,48.35l-1.79.12L41.08,47C36.32,47.5,30.3,48.18,26,48.71l8.29,29.53H66.85L61.48,55H83.36l-2-8.52C66.23,47.19,52.69,47.88,44.08,48.35Z" transform="translate(-7.37 -1.26)"/><path class="cls-5" d="M256.61,38q-10.06-.19-20.4-.27L236,42.64c6.19.08,13.11.22,20.31.38Z" transform="translate(-7.37 -1.26)"/><path class="cls-5" d="M232,42.59l-1.67-3.78-.77-1.14c-2.77,0-5.55,0-8.34,0-15.14,0-31.79.34-48.89.93l.26,4.57c14.39-.36,34.45-.61,50.71-.61C225.9,42.54,228.83,42.56,232,42.59Z" transform="translate(-7.37 -1.26)"/><path class="cls-5" d="M80.69,43.59c-15,1.12-28.57,2.28-39.62,3.4l1.22,1.48c.58,0,1.13-.08,1.79-.11,8.61-.48,22.15-1.17,37.29-1.89Z" transform="translate(-7.37 -1.26)"/><path class="cls-5" d="M154.67,39.26c-19.33.83-38.76,1.92-56.82,3.12l.57,3.31c20.71-.92,42.07-1.75,56.71-2Z" transform="translate(-7.37 -1.26)"/><path class="cls-5" d="M299.21,39.18c-10.22-.38-20.82-.72-31.72-1l-.41,5.09c10.84.28,21.8.62,31.44,1Z" transform="translate(-7.37 -1.26)"/><path class="cls-5" d="M406.38,45.41c-9-.66-20.74-1.53-34.67-2.44l-1,4.42c16.41.82,29,1.53,34.54,1.88Z" transform="translate(-7.37 -1.26)"/><path class="cls-5" d="M350.08,41.63c-9.81-.57-20.34-1.13-31.46-1.63-.32,1.88-.6,3.42-.91,5,10.82.44,21.39.9,31.27,1.36C349.34,44.82,349.71,43.23,350.08,41.63Z" transform="translate(-7.37 -1.26)"/></svg>