<svg xmlns="http://www.w3.org/2000/svg" width="335.68" height="36.6" viewBox="0 0 335.68 36.6">
  <g id="Layer_2" data-name="Layer 2">
    <g id="Layer_1-2" data-name="Layer 1">
      <g>
        <g>
          <polygon points="102.99 0.56 78.41 0.56 76.83 8 84.66 8 78.7 36.04 87.62 36.04 93.58 8 101.41 8 102.99 0.56" style="fill: #231f20"/>
          <polygon points="109.56 21.04 119.99 21.04 121.48 14.02 111.05 14.02 112.42 7.58 123.74 7.58 125.23 0.56 104.99 0.56 97.45 36.04 118.06 36.04 119.55 29.02 107.86 29.02 109.56 21.04" style="fill: #231f20"/>
          <path d="M143.85,20a4.69,4.69,0,0,0-1.69-1.45c2.94-1.39,4.85-4.08,5.7-8,.68-3.21.29-5.83-1.12-7.57A7.12,7.12,0,0,0,141,.56H127.21L119.67,36h8.92l3-13.93h1.07c1.47,0,2.44.27,2.87.81.69.85.28,2.74-.16,4.75l-.16.73c-.06.31-.13.62-.2.93a13.19,13.19,0,0,0-.43,6l.17.71h8.81l-.3-1.15c-.22-.89.5-5.61,1.32-9.46C145,23.14,144.79,21.3,143.85,20Zm-9.21-12.4H137a2,2,0,0,1,1.59.51c.39.48.44,1.45.15,2.8-.14.7-1,4.2-3.73,4.2h-2Z" style="fill: #231f20"/>
          <path d="M168.82,20a4.69,4.69,0,0,0-1.69-1.45c2.94-1.39,4.85-4.08,5.69-8,.69-3.21.3-5.83-1.11-7.57A7.13,7.13,0,0,0,165.92.56H152.18L144.63,36h8.93l3-13.93h1.07c1.47,0,2.44.27,2.87.8.69.86.27,2.75-.16,4.75l-.16.74-.21.93a13.47,13.47,0,0,0-.43,6l.17.71h8.81l-.29-1.15c-.23-.89.5-5.61,1.32-9.46C170,23.14,169.76,21.3,168.82,20Zm-9.21-12.4H162a2,2,0,0,1,1.59.51c.39.48.44,1.45.15,2.8-.15.7-1,4.2-3.73,4.2h-2Z" style="fill: #231f20"/>
          <polygon points="184.71 7.58 196.03 7.58 197.53 0.56 177.28 0.56 169.74 36.04 190.36 36.04 191.85 29.02 180.16 29.02 181.85 21.04 192.29 21.04 193.78 14.02 183.34 14.02 184.71 7.58" style="fill: #231f20"/>
          <path d="M216.34,29.06c1.94-2.41,3.2-5.65,4.25-10.57,1.3-6.13,2.53-11.92-.33-15.46-1.65-2-4.42-3-8.48-3-12.34,0-14.3,9.2-16.19,18.11-1.64,7.71-2.08,12.44.29,15.37,1.59,2,4.35,2.88,8.66,2.88a19.25,19.25,0,0,0,2.2-.17,18.31,18.31,0,0,1,1.92-.15h10.67l1.49-7h-4.07A2,2,0,0,0,216.34,29.06ZM210.71,6.88c1.09,0,1.49.33,1.69.57,1.11,1.38.28,5.83-.74,10.66-1.79,8.39-3,11.38-6.15,11.38a2,2,0,0,1-1.69-.58c-1.11-1.37-.26-5.9.7-10.42C206.34,9.92,207.55,6.88,210.71,6.88Z" style="fill: #231f20"/>
          <path d="M242.87.56l-5.13,24.11c-.72,3.4-2.29,5-4.79,5A2.36,2.36,0,0,1,231,29c-.58-.71-.67-2.08-.27-4L236,.56H227l-5.22,24.58c-.74,3.46-.29,6.22,1.33,8.22s4.71,3.24,8.83,3.24c11.29,0,14-8.48,14.52-11.08l5.3-25Z" style="fill: #231f20"/>
          <polygon points="254.7 0.56 247.16 36.04 256.08 36.04 263.62 0.56 254.7 0.56" style="fill: #231f20"/>
          <path d="M286.82,3.08c-1.35-1.67-3.59-2.52-6.64-2.52H266.77L259.22,36h8.93l2.91-13.7h4.47c6.61,0,10.89-3.67,12.36-10.6C288.71,7.88,288.35,5,286.82,3.08ZM274.2,7.58H277a2.14,2.14,0,0,1,1.76.59c.47.57.52,1.7.17,3.37s-1.95,3.78-3.6,3.78h-2.77Z" style="fill: #231f20"/>
          <polygon points="310.9 7.58 312.4 0.56 292.16 0.56 284.61 36.04 305.23 36.04 306.72 29.02 295.03 29.02 296.72 21.04 307.16 21.04 308.65 14.02 298.21 14.02 299.58 7.58 310.9 7.58" style="fill: #231f20"/>
        </g>
        <path d="M313.18,31.6c.43,0,.64-.19.7-.47s-.08-.49-.58-.49h-.74l-.2,1Zm-.86.95h-.16l-.37,1.8h-1.16l1-4.66h1.82c1.18,0,1.87.31,1.63,1.45a1.57,1.57,0,0,1-1.45,1.34l.73,1.86H313Zm1.17-3.72A3.82,3.82,0,0,0,309.78,32c-.41,2,.66,3.19,2.39,3.18A3.82,3.82,0,0,0,315.88,32c.42-2-.66-3.19-2.39-3.18m.27-1.32A3.54,3.54,0,0,1,317.33,32a5.85,5.85,0,0,1-5.43,4.53,3.54,3.54,0,0,1-3.58-4.48,5.9,5.9,0,0,1,5.44-4.54" style="fill: #231f20"/>
        <path d="M17.47.07A17.4,17.4,0,0,0,2.76,26.88L15.22,14.67h-8l0-6.15h19L26.39,27,19.9,27l.1-7.24L7.74,32A17.41,17.41,0,1,0,17.47.07" style="fill: #231f20"/>
        <path d="M55.14.07A17.4,17.4,0,0,0,40.43,26.88L52.89,14.67h-8l0-6.15H64L64.06,27l-6.49,0,.1-7.24L45.41,32A17.41,17.41,0,1,0,55.14.07" style="fill: #231f20"/>
        <g>
          <path d="M310.39,25.36h-1l1-4.73h1.92a2.23,2.23,0,0,1,.81.12,1,1,0,0,1,.47.4,1.22,1.22,0,0,1,.18.67,1.81,1.81,0,0,1-.14.69,1.72,1.72,0,0,1-.34.55,1.56,1.56,0,0,1-.44.3,2.05,2.05,0,0,1-.62.16,5.5,5.5,0,0,1-.86,0h-.62Zm.54-2.59h.3a3.77,3.77,0,0,0,1-.09.84.84,0,0,0,.4-.31.82.82,0,0,0,.15-.47.47.47,0,0,0-.07-.28.37.37,0,0,0-.22-.16,2,2,0,0,0-.61-.05h-.69Z" style="fill: #231f20"/>
          <path d="M315.82,25.36h-1l.83-3.94h-1.39l.17-.79h3.72l-.16.79h-1.37Z" style="fill: #231f20"/>
          <path d="M320.1,25.36h-1l.39-1.84-1.31-2.89h1l.59,1.34c.14.32.23.55.28.69l.27-.45.45-.62.67-1h1.13l-2.17,3Z" style="fill: #231f20"/>
          <path d="M323.74,25.36l1-4.73h1l-.82,3.94h2.41l-.17.79Z" style="fill: #231f20"/>
          <path d="M329.25,25.36h-1l.82-3.94h-1.38l.16-.79h3.73l-.17.79h-1.37Z" style="fill: #231f20"/>
          <path d="M331.18,25.36l1-4.73h1.27c.36,0,.58,0,.68,0a2.06,2.06,0,0,1,.53.12,1.51,1.51,0,0,1,.42.25,1.76,1.76,0,0,1,.32.39,2,2,0,0,1,.21.53,2.69,2.69,0,0,1,.08.65,3.12,3.12,0,0,1-.29,1.36,2.72,2.72,0,0,1-.74.94,2.19,2.19,0,0,1-.87.4,4.25,4.25,0,0,1-.93.07Zm1.13-.76h.49a2.93,2.93,0,0,0,.78-.07.93.93,0,0,0,.44-.25,2,2,0,0,0,.48-.69,2.49,2.49,0,0,0,.2-1,1.39,1.39,0,0,0-.16-.75.81.81,0,0,0-.4-.34,2.06,2.06,0,0,0-.6-.06H333Z" style="fill: #231f20"/>
        </g>
      </g>
    </g>
  </g>
</svg>
