<svg version="1.1" id="logotype" xmlns="http://www.w3.org/2000/svg" xmlns:xlink="http://www.w3.org/1999/xlink" x="0px" y="0px" viewBox="0 0 623 78" enable-background="new 0 0 623 78" xml:space="preserve">
    <g>
                    <polygon fill="#231F20" points="192.841,6.563 148.191,6.563 145.319,20.076 159.538,20.076 148.707,71.026 164.918,71.026
            175.749,20.076 189.968,20.076 	" />
                    <polygon fill="#231F20" points="204.778,43.773 223.737,43.773 226.447,31.022 207.489,31.022 209.978,19.314 230.544,19.314
            233.256,6.563 196.477,6.563 182.773,71.026 220.229,71.026 222.939,58.276 201.695,58.276 	" />
                    <path fill="#231F20" d="M267.085,41.849c-0.863-1.207-1.946-2.045-3.071-2.635c5.348-2.519,8.82-7.417,10.353-14.627
            c1.239-5.829,0.539-10.583-2.026-13.75c-2.264-2.796-5.901-4.273-10.519-4.273H236.85l-13.703,64.464h16.211l5.38-25.307h1.941
            c2.68,0,4.435,0.492,5.217,1.463c1.255,1.559,0.505,4.995-0.289,8.631l-0.289,1.335c-0.119,0.56-0.246,1.123-0.372,1.688
            c-0.81,3.604-1.647,7.331-0.783,10.906l0.311,1.283h16.005l-0.532-2.091c-0.411-1.618,0.904-10.19,2.391-17.182
            C269.225,47.585,268.803,44.252,267.085,41.849z M250.351,19.314h4.312c1.415,0,2.386,0.313,2.886,0.931
            c0.706,0.871,0.802,2.628,0.28,5.082c-0.271,1.276-1.872,7.642-6.782,7.642h-3.599L250.351,19.314z" />
                    <path fill="#231F20" d="M312.451,41.849c-0.862-1.207-1.945-2.045-3.071-2.635c5.347-2.519,8.821-7.417,10.354-14.628
            c1.238-5.829,0.538-10.583-2.027-13.75c-2.264-2.795-5.901-4.273-10.519-4.273h-24.973l-13.703,64.464h16.211l5.38-25.307h1.942
            c2.68,0,4.435,0.492,5.217,1.463c1.255,1.559,0.505,4.993-0.288,8.63l-0.289,1.337c-0.119,0.56-0.245,1.121-0.372,1.686
            c-0.81,3.604-1.648,7.332-0.784,10.908l0.311,1.283h13.847h2.158l-0.532-2.091c-0.412-1.62,0.904-10.191,2.391-17.182
            C314.591,47.585,314.169,44.253,312.451,41.849z M295.718,19.314h4.31c1.415,0,2.386,0.313,2.887,0.932
            c0.705,0.871,0.802,2.628,0.28,5.082c-0.271,1.276-1.872,7.642-6.782,7.642h-3.599L295.718,19.314z" />
                    <polygon fill="#231F20" points="341.336,19.314 361.903,19.314 364.615,6.563 327.836,6.563 314.134,71.026 351.589,71.026
            354.299,58.276 333.055,58.276 336.138,43.773 355.096,43.773 357.808,31.022 338.848,31.022 	" />
                    <path fill="#231F20" d="M398.793,58.349c3.531-4.374,5.831-10.262,7.732-19.207c2.367-11.139,4.604-21.659-0.61-28.097
            c-2.995-3.699-8.031-5.498-15.396-5.498c-22.432,0-25.988,16.723-29.428,32.899c-2.978,14.009-3.773,22.61,0.536,27.931
            c2.896,3.577,7.895,5.242,15.729,5.242c1.248,0,2.648-0.158,4.002-0.311c1.281-0.145,2.492-0.282,3.487-0.282h19.387l2.709-12.75
            h-7.403C399.313,58.276,399.066,58.301,398.793,58.349z M388.576,18.044c1.982,0,2.695,0.597,3.059,1.045
            c2.028,2.505,0.522,10.585-1.343,19.356c-3.243,15.26-5.417,20.678-11.161,20.678c-1.99,0-2.707-0.602-3.073-1.054
            c-2.015-2.487-0.479-10.713,1.268-18.926C380.636,23.572,382.833,18.044,388.576,18.044z" />
    
                    <path fill="#231F20" d="M447.005,6.563l-9.313,43.816c-1.311,6.168-4.16,9.167-8.714,9.167c-1.632,0-2.808-0.432-3.496-1.281
            c-1.053-1.3-1.227-3.785-0.503-7.188l9.463-44.514h-16.212l-9.494,44.664c-1.336,6.281-0.523,11.307,2.415,14.936
            c3.159,3.902,8.561,5.88,16.053,5.88c20.503,0,25.368-15.398,26.371-20.118l9.643-45.361H447.005z" />
    
                    <polygon fill="#231F20" points="468.504,6.563 454.801,71.026 471.013,71.026 484.716,6.563 	" />
    
                    <path fill="#231F20" d="M526.863,11.142c-2.461-3.039-6.519-4.58-12.059-4.58h-24.38l-13.703,64.464h16.212l5.29-24.883h8.119
            c12.018,0,19.787-6.664,22.468-19.271C530.299,19.869,529.644,14.577,526.863,11.142z M503.926,19.314H509
            c1.554,0,2.634,0.36,3.208,1.07c0.842,1.039,0.941,3.101,0.298,6.128c-0.691,3.254-3.546,6.88-6.535,6.88h-5.038L503.926,19.314z" />
    
                    <polygon fill="#231F20" points="570.623,19.314 573.335,6.563 536.557,6.563 522.854,71.026 560.31,71.026 563.019,58.276
            541.774,58.276 544.858,43.773 563.815,43.773 566.527,31.022 547.567,31.022 550.057,19.314 	" />
    
    </g>
    <path fill="#231F20" d="M574.767,62.96c0.777-0.004,1.151-0.335,1.26-0.844c0.122-0.593-0.143-0.9-1.052-0.896l-1.346,0.008
        l-0.362,1.74L574.767,62.96z M573.198,64.694h-0.287l-0.679,3.271l-2.112,0.012l1.75-8.462l3.313-0.016
        c2.135-0.013,3.386,0.553,2.955,2.626c-0.336,1.635-1.385,2.243-2.642,2.445l1.328,3.371l-2.36,0.012L573.198,64.694z
         M575.325,57.924c-3.136,0.016-5.98,2.175-6.744,5.846c-0.752,3.668,1.2,5.794,4.341,5.778c3.127-0.016,5.977-2.174,6.744-5.832
        C580.424,60.044,578.463,57.909,575.325,57.924 M575.82,55.541c4.523-0.026,7.428,3.626,6.487,8.157
        c-0.938,4.524-5.358,8.211-9.882,8.232c-4.522,0.029-7.427-3.618-6.489-8.146C566.874,59.255,571.298,55.563,575.82,55.541" />
    
    <path fill="#231F20" d="M37.457,5.668C19.989,5.607,5.779,19.72,5.714,37.183c-0.017,6.343,1.822,12.248,5.016,17.206l22.642-22.188
        l-14.509-0.019L18.9,21.003l34.622,0.018l0.141,33.643l-11.786-0.042l0.182-13.147L19.781,63.601
        c4.992,3.345,10.993,5.304,17.457,5.322c17.467,0.066,31.679-14.05,31.737-31.517C69.039,19.94,54.928,5.725,37.457,5.668" />
    
    <path fill="#231F20" d="M105.9,5.668C88.432,5.607,74.222,19.72,74.157,37.183c-0.017,6.343,1.822,12.248,5.016,17.206
        l22.642-22.188l-14.509-0.019l0.037-11.179l34.622,0.018l0.141,33.644l-11.786-0.043l0.182-13.147L88.224,63.601
        c4.991,3.345,10.993,5.304,17.457,5.322c17.467,0.066,31.678-14.05,31.738-31.517C137.481,19.94,123.37,5.725,105.9,5.668" />
    
    <g>
                    <path fill="#231F20" d="M569.691,51.623h-1.77l1.799-8.59h3.492c0.621,0,1.112,0.073,1.474,0.22s0.647,0.389,0.858,0.727
            s0.316,0.741,0.316,1.21c0,0.434-0.084,0.855-0.252,1.266s-0.374,0.738-0.618,0.984s-0.507,0.433-0.788,0.56
            s-0.66,0.224-1.137,0.29c-0.277,0.039-0.797,0.059-1.559,0.059h-1.131L569.691,51.623z M570.67,46.924h0.545
            c0.934,0,1.557-0.059,1.869-0.176s0.559-0.305,0.738-0.563s0.27-0.541,0.27-0.85c0-0.207-0.046-0.377-0.138-0.51
            s-0.221-0.229-0.387-0.29s-0.536-0.091-1.11-0.091h-1.266L570.67,46.924z" />
    
                    <path fill="#231F20" d="M579.55,51.623h-1.77l1.5-7.154h-2.52l0.299-1.436h6.768l-0.299,1.436h-2.484L579.55,51.623z" />
    
                    <path fill="#231F20" d="M587.34,51.623h-1.764l0.697-3.346l-2.367-5.244h1.881l1.066,2.426c0.254,0.582,0.424,1.002,0.51,1.26
            c0.145-0.254,0.313-0.523,0.504-0.809l0.814-1.137l1.213-1.74h2.051l-3.938,5.408L587.34,51.623z" />
    
                    <path fill="#231F20" d="M593.949,51.623l1.799-8.59h1.764l-1.494,7.154h4.371l-0.299,1.436H593.949z" />
    
                    <path fill="#231F20" d="M603.961,51.623h-1.77l1.5-7.154h-2.52l0.299-1.436h6.768l-0.299,1.436h-2.484L603.961,51.623z" />
    
                    <path fill="#231F20" d="M607.462,51.623l1.799-8.59h2.314c0.645,0,1.057,0.01,1.236,0.029c0.355,0.035,0.673,0.107,0.952,0.217
            s0.533,0.263,0.762,0.46s0.426,0.435,0.592,0.712s0.294,0.597,0.384,0.958s0.135,0.757,0.135,1.187c0,0.926-0.177,1.747-0.53,2.464
            s-0.798,1.286-1.333,1.708c-0.41,0.328-0.939,0.57-1.588,0.727c-0.367,0.086-0.932,0.129-1.693,0.129H607.462z M609.519,50.24
            h0.896c0.648,0,1.118-0.04,1.409-0.12s0.558-0.229,0.8-0.448c0.348-0.316,0.641-0.738,0.879-1.266s0.357-1.148,0.357-1.863
            c0-0.609-0.099-1.067-0.296-1.374s-0.44-0.511-0.729-0.612c-0.203-0.07-0.564-0.105-1.084-0.105h-1.025L609.519,50.24z" />
    
    </g>
    </svg>